<svg width="20" height="24" viewBox="0 0 20 24" fill="none" xmlns="http://www.w3.org/2000/svg">
<path d="M16.3239 12.7527C16.2937 9.7125 18.8031 8.25435 18.9153 8.18069C17.505 6.11859 15.3078 5.83564 14.5258 5.80345C12.6573 5.61368 10.8782 6.90401 9.93032 6.90401C8.9844 6.90401 7.5199 5.83125 5.97052 5.85857C3.93233 5.88882 2.05366 7.04402 1.00481 8.86854C-1.11193 12.5405 0.463305 17.9824 2.52589 20.9626C3.53425 22.4193 4.73678 24.0584 6.31445 23.9984C7.83505 23.9384 8.40874 23.0149 10.2469 23.0149C12.0851 23.0149 12.6012 23.9984 14.2096 23.9677C15.8449 23.9379 16.8815 22.4832 17.8816 21.0206C19.0393 19.3283 19.5159 17.6897 19.5442 17.6067C19.5086 17.5901 16.3566 16.3827 16.3239 12.7527Z" fill="#0E1118"/>
<path d="M13.3015 3.83198C14.1381 2.8163 14.705 1.40498 14.5508 0C13.3434 0.0487839 11.8819 0.802496 11.015 1.8172C10.2383 2.71775 9.55927 4.15151 9.74124 5.53112C11.0882 5.63552 12.4619 4.84571 13.3015 3.83198Z" fill="#0E1118"/>
</svg>
