<svg width="18" height="19" viewBox="0 0 18 19" fill="none" xmlns="http://www.w3.org/2000/svg">
<path d="M15.875 1.75H13.8125V1.0625C13.8125 0.880164 13.7401 0.705295 13.6111 0.576364C13.4822 0.447433 13.3073 0.375 13.125 0.375C12.9427 0.375 12.7678 0.447433 12.6389 0.576364C12.5099 0.705295 12.4375 0.880164 12.4375 1.0625V1.75H5.5625V1.0625C5.5625 0.880164 5.49007 0.705295 5.36114 0.576364C5.2322 0.447433 5.05734 0.375 4.875 0.375C4.69266 0.375 4.5178 0.447433 4.38886 0.576364C4.25993 0.705295 4.1875 0.880164 4.1875 1.0625V1.75H2.125C1.76033 1.75 1.41059 1.89487 1.15273 2.15273C0.894866 2.41059 0.75 2.76033 0.75 3.125V16.875C0.75 17.2397 0.894866 17.5894 1.15273 17.8473C1.41059 18.1051 1.76033 18.25 2.125 18.25H15.875C16.2397 18.25 16.5894 18.1051 16.8473 17.8473C17.1051 17.5894 17.25 17.2397 17.25 16.875V3.125C17.25 2.76033 17.1051 2.41059 16.8473 2.15273C16.5894 1.89487 16.2397 1.75 15.875 1.75ZM15.875 5.875H2.125V3.125H4.1875V3.8125C4.1875 3.99484 4.25993 4.1697 4.38886 4.29864C4.5178 4.42757 4.69266 4.5 4.875 4.5C5.05734 4.5 5.2322 4.42757 5.36114 4.29864C5.49007 4.1697 5.5625 3.99484 5.5625 3.8125V3.125H12.4375V3.8125C12.4375 3.99484 12.5099 4.1697 12.6389 4.29864C12.7678 4.42757 12.9427 4.5 13.125 4.5C13.3073 4.5 13.4822 4.42757 13.6111 4.29864C13.7401 4.1697 13.8125 3.99484 13.8125 3.8125V3.125H15.875V5.875Z" fill="black"/>
</svg>
